<svg fill="none" height="36" width="110" xmlns="http://www.w3.org/2000/svg" xmlns:xlink="http://www.w3.org/1999/xlink"><path d="m19.9 4.6c-3.9 0-6.4 2.6-6.4 6.2 0 3.8 2.5 6.3 6.6 6.3 1.8 0 3.9-.6 5.1-1.9l-1.9-1.8c-.7.7-2.1 1.1-3.2 1.1-2.1 0-3.4-1.1-3.5-2.5h9.4c.5-5-2.1-7.4-6.1-7.4zm-3.2 4.9c.5-1.5 1.8-2.3 3.4-2.3 1.7 0 2.9.8 3.1 2.3zm15.2 4.8c-.9 0-1.5-.5-1.5-1.7v-5.1h3.3v-2.5h-3.3v-3.3l-3 .3v10.7c0 3 1.7 4.4 4.3 4.3.9 0 1.6-.2 2.5-.5l-.9-2.5c-.4.2-.9.3-1.4.3zm22.4-9.7c-1.2 0-2.5.2-3.4 1.7l-.2-1.3h-2.8v11.9h3v-6.2c0-2.2 1.5-3 3-3 1 0 1.4.2 2 .6l1.3-2.5c-.6-.8-1.7-1.1-2.9-1.2zm8.7.1c-3.8 0-6.2 2.8-6.2 6.2s2.3 6.2 6.2 6.2 6.2-2.7 6.2-6.2c.1-3.4-2.4-6.2-6.2-6.2zm.1 9.7c-2.1 0-3.2-1.7-3.2-3.5s1.2-3.5 3.2-3.5 3.2 1.8 3.2 3.5c0 1.8-1.1 3.5-3.2 3.5zm16.3-3.4c0 1.8-1.2 3.4-3.1 3.4s-2.9-1.4-2.9-3.2v-6.2h-3v6.2c0 3.7 2.1 5.8 4.9 5.8 1.7 0 2.8-.6 4.1-1.8l.2 1.6h2.6v-11.8h-2.9zm11.3-6.3c-1.5 0-2.7.6-3.9 1.8l-.2-1.6h-2.6v11.9h2.9v-6.1c0-1.8 1.2-3.4 3.1-3.4s2.9 1.4 2.9 3.2v6.2h3v-6.2c-.1-3.6-2.3-5.8-5.2-5.8zm16.3-4.7v6.6c-.7-1.2-2.7-1.9-3.9-1.9-3.5 0-6.1 2.1-6.1 6.2 0 3.9 2.6 6.2 6.1 6.2 1.5 0 2.9-.5 3.8-1.9l.2 1.6h2.8v-16.8zm-3.7 14.3c-1.9 0-3.4-1.4-3.4-3.5s1.5-3.4 3.4-3.4c1.8 0 3.5 1.4 3.5 3.4 0 2.2-1.6 3.5-3.5 3.5zm-59-9.2c-1.4-.8-4.2-.8-5.8-.5-1.9.5-3.1 2-3.2 3.8l2.8.6c.3-1.3.6-1.8 1.9-2 .8-.2 2.1-.1 2.8.6.4.4.4.5.4 1.2 0 .3-.6.4-1 .5-1.3.3-3.4.5-4.7.8-2.5.7-2.9 3.7-1.6 5.3s4.6 2 6.4.8c.3-.2.5-.4.9-.6v1.1h3.1v-3c0-1.8.1-3.6 0-5.4-.1-1.4-.8-2.5-2-3.2zm-2.3 9c-.4.2-.8.3-1.2.5-.5.1-1.2.2-1.7.1-.4-.1-.8-.3-1-.6-.2-.2-.2-.4-.2-.7 0-.2.1-.4.2-.6s.4-.4.6-.5c.8-.3 1.6-.5 2.5-.5l1.4-.2h.4c.1 0 .1 0 .1.1 0 .2 0 .4-.1.6 0 .2-.1.4-.2.6-.1.4-.4.8-.8 1.2zm-35.8 3c-3.9 0-6.2-2.7-6.2-6.2s2.4-6.2 6.2-6.2h7.4s-.3 1.9-2.1 2.7h-5.3c-2.1 0-3.3 1.8-3.3 3.5 0 1.8 1.1 3.5 3.2 3.5s3.2-1.7 3.2-3.5c0-1-.4-2-1.1-2.6h3.5c.4.8.5 1.7.5 2.6 0 2-.8 3.7-2.1 4.8 1.7 1 2.1 2.4 2.1 3.8 0 3.4-2.6 5.5-6.1 5.5-3.4 0-5.9-1.9-6.2-4.8l3-.3c.2 1.4 1.5 2.4 3.2 2.4 1.8 0 3.1-.9 3.1-2.7.2-1.8-1.4-2.5-3-2.5z" fill="#b01aa7"/><path d="m87.091 26.628h1.953v7.069h-1.953zm-2.864.268c-.422-.261-.937-.414-1.55-.414-2.04 0-3.69 1.64-3.677 3.662-.012 2.022 1.637 3.661 3.677 3.661.613 0 1.134-.153 1.55-.414v.28h1.903v-9.314h-1.903v2.54zm-1.482 5.276c-1.06 0-1.934-.9-1.934-2.003v-.013c0-1.11.874-2.003 1.934-2.003.353 0 .676.102.948.28.205.122.385.282.534.466v2.565a1.936 1.936 0 0 1 -1.482.708zm9.709-5.563h1.953v7.069h-1.953zm6.225 3.885-1.569-3.884h-1.953l2.858 7.069h1.327l2.858-7.069h-1.953l-1.568 3.885zm-5.252-6.494c.583 0 1.054.485 1.054 1.084 0 .6-.47 1.085-1.054 1.085-.582 0-1.054-.485-1.054-1.085s.472-1.084 1.054-1.084zm-2.709 2.45c-.688-.09-1.271.504-1.184 1.218.062.485.44.874.905.932.688.089 1.271-.504 1.184-1.219a1.068 1.068 0 0 0 -.905-.931zm17.329.16-1.569 3.878-1.568-3.879h-1.953l2.393 5.92c.093.237.093.504 0 .74l-1.104 2.731h1.953l.943-2.328 2.858-7.07h-1.953v.007zm-76.488-2.166a2.625 2.625 0 0 0 -.672-.084c-.768 0-1.44.348-1.848.936-.252.36-.36.828-.36 1.584v.48h-1.32v1.02h1.32v4.62h1.14v-4.62h1.74v-1.02h-1.74v-.516c0-.516.06-.804.216-1.008.192-.252.54-.396.864-.396.156 0 .336.024.42.048zm.668 5.736c0 1.68 1.248 2.94 2.917 2.94 1.668 0 2.916-1.26 2.916-2.94s-1.248-2.94-2.916-2.94c-1.669 0-2.916 1.26-2.916 2.94zm1.14 0c0-1.032.733-1.86 1.777-1.86s1.776.828 1.776 1.86-.733 1.86-1.776 1.86c-1.044 0-1.776-.828-1.776-1.86zm9.05-2.94c-1.007 0-1.643.552-1.691 1.224v-1.104h-1.104v5.64h1.14v-3.732c.312-.54.936-.948 1.524-.948.18 0 .312.012.444.048l.132-1.092a2.885 2.885 0 0 0 -.444-.036zm4.582 0c-.96 0-1.608.552-1.656 1.224v-1.104h-1.104v5.64h1.14v-3.876c.324-.384.888-.804 1.584-.804.432 0 .84.192 1.092.492.204.24.324.552.324 1.128v3.06h1.14v-2.88c0-.396-.036-.72-.096-.996.372-.384.9-.804 1.716-.804.42 0 .804.192 1.056.492.204.24.324.552.324 1.128v3.06h1.14v-2.88c0-.948-.168-1.5-.516-1.932a2.552 2.552 0 0 0 -2.004-.948c-1.02 0-1.632.42-2.148.936a2.556 2.556 0 0 0 -1.992-.936zm13.551 3.18c.013-.108.013-.192.013-.24 0-1.668-1.14-2.94-2.713-2.94-1.596 0-2.748 1.248-2.748 2.94s1.273 2.94 2.917 2.94c1.151 0 1.956-.516 2.376-1.056l-.745-.708c-.323.36-.78.768-1.62.768a1.817 1.817 0 0 1 -1.824-1.704zm-2.663-2.184c.672 0 1.32.504 1.487 1.224h-3.072a1.64 1.64 0 0 1 1.584-1.224zm7.03-.996c-1.007 0-1.643.552-1.691 1.224v-1.104h-1.104v5.64h1.14v-3.732c.312-.54.936-.948 1.524-.948.18 0 .312.012.444.048l.132-1.092a2.885 2.885 0 0 0 -.444-.036zm1.823 5.76h1.14v-8.52h-1.14zm4.376 2.88 3.708-8.52h-1.2l-1.62 3.72-1.764-3.72h-1.225l2.413 5.052-1.525 3.468z" fill="#333"/></svg>
